<svg xmlns="http://www.w3.org/2000/svg" xml:space="preserve" width="77mm" height="77mm" version="1.1" style="shape-rendering:geometricPrecision; text-rendering:geometricPrecision; image-rendering:optimizeQuality; fill-rule:evenodd; clip-rule:evenodd"
viewBox="0 0 7700 7700"
 xmlns:xlink="http://www.w3.org/1999/xlink"
 xmlns:xodm="http://www.corel.com/coreldraw/odm/2003">
 <defs>
  <style type="text/css">
   <![CDATA[
    .fil0 {fill:#61C2EF}
    .fil1 {fill:#2D2E30}
    .fil2 {fill:#FAFAFA}
   ]]>
  </style>
 </defs>
 <g id="Слой_x0020_1">
  <metadata id="CorelCorpID_0Corel-Layer"/>
  <circle class="fil0" cx="3882.25" cy="3819.66" r="3249.13"/>
  <g id="_1923609411536">
   <g id="_1923300782240">
    <path class="fil1" d="M5065.55 2461.06c385.85,-101.68 544.27,205.46 171.82,291.88 -504.2,116.98 -486.85,-208.85 -171.82,-291.88zm-2057.49 468.7c176.35,-29.3 347.93,-77.32 470.89,28.36 42.35,141.09 -34.67,203.29 -130.36,264.38 -82.4,52.65 -165.84,93.19 -258.16,136.64 -181.25,85.33 -365.36,178.88 -544.01,250.48 -169.89,305.35 -214.44,515.09 -314.99,837.7 -83.36,267.57 -266.75,233.26 -440.45,443.68 -124.83,151.17 -273.42,547.29 -245.91,744.98l10.54 51.6c6.51,18.52 11.65,26.53 23.39,41.83 59.35,41.93 94.22,-13.7 126.35,-66 74.64,-121.54 92.4,-202.2 233.8,-283.13 135.18,-77.39 284.58,-153.21 422.86,-227.79l23.48 -12.66c210.77,315.81 473.31,325.27 624.94,560.79 31.04,48.22 127.97,198.36 192.13,103.84 45.56,-67.16 21.03,-377.35 7.11,-453.81 -51.97,-285.44 -209.7,-514.93 -352.6,-760.74 43.67,-34.34 37.68,-38.49 87.95,-70.95 8.16,-82.02 110.36,-145.82 173.17,-202.13 255.45,-229.02 271.23,-295.05 638.88,-565.63 141.08,-103.85 322.23,-229.66 498.73,-308.38 294.52,-131.29 475.86,-29.05 373.51,283.36 -73.26,741.31 680.72,328.46 694.27,-245.92 -24.2,-132.57 -25.65,-290.13 -31.91,-427.42 -7.21,-158.47 56.12,-157.47 189.59,-210.39 174.88,-71.82 334.24,-173.5 496.26,-269.83 66.37,-39.47 61.4,-65.77 47.88,-140.22 -50.73,-279.49 -268.61,-292.02 -498.36,-343.75l-20.69 -4.78c-348.28,-81.4 -601.14,-172.95 -963.81,-89.35 -210.75,48.56 -406.98,140.39 -607.47,217.6 -150.91,58.12 -425.96,68.42 -599.26,103.87 -130.52,27.82 -847.34,191.95 -793.88,381.05 26.87,95.08 370.09,192.94 466.13,232.72z"/>
    <path class="fil2" d="M2945.02 4518.96c98.49,-100.46 605.88,-392.39 763.1,-451.8 264.89,-100.08 396.93,-115.88 693.47,-240.35 71.97,-30.19 153.87,-88.43 227.72,-100.63 102.35,-312.41 -78.99,-414.65 -373.51,-283.36 -176.5,78.72 -357.65,204.53 -498.73,308.38 -367.65,270.58 -383.43,336.61 -638.88,565.63 -62.81,56.31 -165.01,120.11 -173.17,202.13z"/>
    <path class="fil2" d="M3008.06 2929.76c-42.73,72.76 -93.87,97.04 -147.49,165.57 -94.06,121.91 -165.54,233.84 -235.75,370.63 -25.08,48.85 -52.37,95.45 -78.4,143.66 185.33,-74.94 363.33,-165.22 544.01,-250.48 92.32,-43.45 175.76,-83.99 258.16,-136.64 95.69,-61.09 172.71,-123.29 130.36,-264.38 -122.96,-105.68 -294.54,-57.66 -470.89,-28.36z"/>
    <path class="fil2" d="M5323.58 3480.26c62.28,-149.48 -19.07,-148.88 129.37,-262.9 168.54,-131.92 491.13,-437.61 567.92,-632.85 25.91,-65.91 -39.78,-17.26 -70.02,0.32 -135.58,78.77 -250.32,160.11 -395.05,226.24 -24.78,11.08 -49.37,21.22 -74.54,31.38 -133.47,52.92 -196.8,51.92 -189.59,210.39 6.26,137.29 7.71,294.85 31.91,427.42z"/>
    <path class="fil2" d="M5065.55 2461.06c-315.03,83.03 -332.38,408.86 171.82,291.88 372.45,-86.42 214.03,-393.56 -171.82,-291.88z"/>
   </g>
  </g>
 </g>
</svg>
